Coordinates
version=1
nRows=11
nColumns=33
inDegrees=yes

Units are S.I. units (second, meters, Newtons, ...)
Angles are in degrees.

endheader
time	ground_thorax_rot_x	ground_thorax_rot_y	ground_thorax_rot_z	ground_thorax_tx	ground_thorax_ty	ground_thorax_tz	clav_prot_r	clav_elev_r	scapula_abduction_r	scapula_elevation_r	scapula_upward_rot_r	scapula_winging_r	shoulder_elv_r	plane_of_elev_r	axial_rot_r	elbow_flexion_r	pro_sup_r	wrist_flex_r	wrist_dev_r	clav_prot_l	clav_elev_l	scapula_abduction_l	scapula_elevation_l	scapula_upward_rot_l	scapula_winging_l	shoulder_elv_l	plane_of_elev_l	axial_rot_l	elbow_flexion_l	pro_sup_l	wrist_flex_l	wrist_dev_l	
7.6900	-27.187140	-36.878333	46.380478	1.988613	828.845456	-49.207015	45.000000	-45.000000	41.983805	-45.000000	-27.512706	352.202379	4177.707037	-90.000000	-17.893143	3937.399331	112.224229	12.276029	11.168085	-0.045248	32.505830	-31.923151	-45.000000	-45.000000	4407.302192	-5126.970641	131.800949	-97.467767	1789.857175	403.468881	14.606899	-16.780387	
7.7000	-26.872615	-37.213922	47.013588	4.391093	827.819250	-49.006973	45.000000	-45.000000	41.946140	-45.000000	-27.797628	352.264412	4177.573221	-90.000000	-17.835181	3937.417525	112.745231	12.217513	11.135414	-0.061554	32.467106	-31.794667	-45.000000	-45.000000	4407.216962	-5127.084931	131.877711	-97.840709	1789.837539	403.557639	14.531244	-16.616814	
7.7100	-26.550821	-37.547184	47.654185	6.796630	826.768695	-48.805009	45.000000	-45.000000	41.898090	-45.000000	-28.107808	352.329097	4177.446086	-90.000000	-17.773654	3937.438169	113.251232	12.162877	11.101123	-0.078067	32.429770	-31.663436	-45.000000	-45.000000	4407.125774	-5127.205999	131.961617	-98.239220	1789.825204	403.658550	14.448182	-16.451581	
7.7200	-26.214491	-37.883151	48.311875	9.204348	825.692339	-48.599391	45.000000	-45.000000	41.844163	-45.000000	-28.450555	352.393769	4177.323714	-90.000000	-17.709376	3937.458703	113.740058	12.110598	11.065883	-0.102226	32.390945	-31.523329	-45.000000	-45.000000	4407.028343	-5127.333113	132.054444	-98.660923	1789.818839	403.773445	14.357500	-16.285784	
7.7300	-25.868505	-38.215855	48.979336	11.612840	824.588886	-48.388356	45.000000	-45.000000	41.777531	-45.000000	-28.816628	352.462271	4177.205775	-90.000000	-17.647191	3937.485562	114.212405	12.058817	11.027766	-0.132985	32.353961	-31.378313	-45.000000	-45.000000	4406.926652	-5127.464764	132.151137	-99.103301	1789.815789	403.903553	14.260079	-16.121462	
7.7400	-25.508606	-38.548007	49.663500	14.020124	823.457619	-48.170468	45.000000	-45.000000	41.700647	-45.000000	-29.209832	352.531998	4177.090611	-90.000000	-17.589435	3937.516321	114.669089	12.006326	10.987714	-0.173681	32.316486	-31.224038	-45.000000	-45.000000	4406.821527	-5127.599243	132.252100	-99.564560	1789.814920	404.048643	14.156959	-15.960071	
7.7500	-25.138986	-38.875482	50.358965	16.424232	822.298515	-47.944833	45.000000	-45.000000	41.609002	-45.000000	-29.622414	352.606138	4176.977302	-90.000000	-17.538937	3937.555511	115.112922	11.951260	10.945038	-0.224141	32.281108	-31.064002	-45.000000	-45.000000	4406.718337	-5127.734836	132.351059	-100.043418	1789.813691	404.208040	14.051025	-15.804412	
7.7600	-24.759389	-39.199284	51.067181	18.823033	821.112530	-47.711312	45.000000	-45.000000	41.504224	-45.000000	-30.054498	352.684802	4176.862093	-90.000000	-17.495061	3937.599108	115.548115	11.892365	10.901646	-0.284131	32.246861	-30.897524	-45.000000	-45.000000	4406.621225	-5127.870282	132.446655	-100.537505	1789.812556	404.380278	13.944355	-15.656438	
7.7700	-24.374173	-39.515162	51.783361	21.214788	819.901361	-47.470465	45.000000	-45.000000	41.381501	-45.000000	-30.499351	352.770260	4176.747463	-90.000000	-17.459534	3937.652599	115.978348	11.830104	10.855592	-0.352276	32.216040	-30.728167	-45.000000	-45.000000	4406.531051	-5128.003635	132.536640	-101.048235	1789.811426	404.564211	13.837757	-15.516207	
7.7800	-23.983061	-39.827023	52.507314	23.597627	818.667502	-47.223483	45.000000	-45.000000	41.249412	-45.000000	-30.961373	352.857825	4176.630312	-90.000000	-17.426914	3937.705443	116.408918	11.763442	10.811757	-0.425556	32.186416	-30.554665	-45.000000	-45.000000	4406.454484	-5128.137362	132.621351	-101.572217	1789.812117	404.758240	13.734277	-15.386054	
7.7900	-23.588402	-40.133995	53.234277	25.969815	817.413811	-46.971892	45.000000	-45.000000	41.109628	-45.000000	-31.439315	352.947823	4176.511967	-90.000000	-17.395003	3937.753478	116.842925	11.694775	10.770919	-0.502807	32.157575	-30.379118	-45.000000	-45.000000	4406.389293	-5128.272443	132.703662	-102.106156	1789.816972	404.961462	13.633292	-15.265266	
